HIERARCHY
ROOT Hips
{
	OFFSET 0.00000 0.00000 0.00000
	CHANNELS 6 Xposition Yposition Zposition Zrotation Yrotation Xrotation 
	JOINT LHipJoint
	{
		OFFSET 0 0 0
		CHANNELS 3 Zrotation Yrotation Xrotation
		JOINT LeftHip
		{
			OFFSET 1.36337 -1.57426 1.11036
			CHANNELS 3 Zrotation Yrotation Xrotation
			JOINT LeftKnee
			{
				OFFSET 2.38468 -6.55187 0.00000
				CHANNELS 3 Zrotation Yrotation Xrotation
				JOINT LeftAnkle
				{
					OFFSET 2.37166 -6.51609 0.00000
					CHANNELS 3 Zrotation Yrotation Xrotation
					JOINT LeftToe
					{
						OFFSET 0.29078 -0.79891 2.01393
						CHANNELS 3 Zrotation Yrotation Xrotation
						End Site
						{
							OFFSET 0.00000 -0.00000 1.07924
						}
					}
				}
			}
		}
	}
	JOINT RHipJoint
	{
		OFFSET 0 0 0
		CHANNELS 3 Zrotation Yrotation Xrotation
		JOINT RightHip
		{
			OFFSET -1.36349 -1.57426 1.11036
			CHANNELS 3 Zrotation Yrotation Xrotation
			JOINT RightKnee
			{
				OFFSET -2.29562 -6.30717 0.00000
				CHANNELS 3 Zrotation Yrotation Xrotation
				JOINT RightAnkle
				{
					OFFSET -2.40985 -6.62100 0.00000
					CHANNELS 3 Zrotation Yrotation Xrotation
					JOINT RightToe
					{
						OFFSET -0.23197 -0.63733 1.92232
						CHANNELS 3 Zrotation Yrotation Xrotation
						End Site
						{
							OFFSET -0.00000 -0.00000 1.01562
						}
					}
				}
			}
		}
	}
	JOINT lowerback
	{
		OFFSET 0 0 0
		CHANNELS 3 Zrotation Yrotation Xrotation
		JOINT Chest
		{
			OFFSET -0.08565 2.03602 -0.24562
			CHANNELS 3 Zrotation Yrotation Xrotation
			JOINT Chest2
			{
				OFFSET -0.00036 2.05693 0.00216
				CHANNELS 3 Zrotation Yrotation Xrotation
				JOINT lowerneck
				{
					OFFSET 0 0 0
					CHANNELS 3 Zrotation Yrotation Xrotation
					JOINT Neck
					{
						OFFSET -0.03664 1.69515 0.31789
						CHANNELS 3 Zrotation Yrotation Xrotation
						JOINT Head
						{
							OFFSET 0.00932 1.70181 -0.46013
							CHANNELS 3 Zrotation Yrotation Xrotation
							End Site
							{
								OFFSET 0.01243 1.77620 -0.19377
							}
						}
					}
				}
				JOINT LeftCollar
				{
					OFFSET 0 0 0
					CHANNELS 3 Zrotation Yrotation Xrotation
					JOINT LeftShoulder
					{
						OFFSET 3.74344 0.81315 -0.36647
CHANNELS 3 Zrotation Xrotation Yrotation
						JOINT LeftElbow
						{
OFFSET 0 -4.971850 -0.000000
CHANNELS 3 Zrotation Xrotation Yrotation
							JOINT LeftWrist
							{
OFFSET 0 -3.358110 0.000000
CHANNELS 3 Zrotation Xrotation Yrotation
								JOINT lhand
								{
									OFFSET 0 0 0
CHANNELS 3 Zrotation Xrotation Yrotation
									JOINT LFingers
									{
OFFSET 0 -0.622780 0.000000
CHANNELS 3 Zrotation Xrotation Yrotation
										End Site
										{
OFFSET 0 -0.502100 0.000000
										}
									}
								}
								JOINT LThumb
								{
OFFSET 0 0.000000 0.000000
CHANNELS 3 Zrotation Xrotation Yrotation
									End Site
									{
OFFSET 0 -0.509760 0.509760
									}
								}
							}
						}
					}
				}
				JOINT RightCollar
				{
					OFFSET 0 0 0
					CHANNELS 3 Zrotation Yrotation Xrotation
					JOINT RightShoulder
					{
						OFFSET -3.75385 0.50666 -0.06525
CHANNELS 3 Zrotation Xrotation Yrotation
						JOINT RightElbow
						{
OFFSET 0 -4.964930 -0.000000
CHANNELS 3 Zrotation Xrotation Yrotation
							JOINT RightWrist
							{
OFFSET 0 -3.349290 0.000000
CHANNELS 3 Zrotation Xrotation Yrotation
								JOINT rhand
								{
									OFFSET 0 0 0
CHANNELS 3 Zrotation Xrotation Yrotation
									JOINT RFingers
									{
OFFSET 0 -0.638040 0.000000
CHANNELS 3 Zrotation Xrotation Yrotation
										End Site
										{
OFFSET 0 -0.514410 0.000000
										}
									}
								}
								JOINT RThumb
								{
OFFSET 0 0.000000 0.000000
CHANNELS 3 Zrotation Xrotation Yrotation
									End Site
									{
OFFSET 0 -0.522260 0.522260
									}
								}
							}
						}
					}
				}
			}
		}
	}
}
MOTION
Frames: 5
Frame Time: 0.008333333333333333
-8.446300 1.646000 1.085700 33.010100 84.510400 134.331000 0.000000 0.000000 0.000000 -16.788300 2.590500 -23.963000 3.897600 12.022900 35.813000 0.464600 8.860700 -19.021400 1.430200 7.561800 21.390800 0.000000 0.000000 0.000000 16.929900 -10.620500 -21.864500 -2.006900 -8.880500 25.422100 -0.215700 -15.039400 -23.469000 -3.667100 -11.703700 34.691600 -0.208100 1.923300 -17.654500 -1.459500 2.886900 -3.057300 -0.764400 1.506100 6.665900 19.179500 21.053900 -7.208300 -16.266400 30.789300 24.764000 -3.349600 13.557600 15.677300 0.000000 0.000000 0.000000 89.363100 -34.275000 34.809600 142.054400 -46.804500 103.074100 15.259700 -24.154000 22.593600 0.000000 0.000000 0.000000 -7.125000 0.000000 0.000000 -8.563400 6.863300 -7.565800 0.000000 0.000000 0.000000 -91.620000 -10.271800 -36.524300 -148.581900 -42.078300 -107.650900 -11.397600 -19.916000 31.054700 0.000000 0.000000 0.000000 7.125000 0.000000 -0.000000 23.282800 60.005200 -8.810200
-8.444108 1.645256 1.086594 35.919061 84.840110 136.971731 0.000000 0.000000 0.000000 -16.321340 2.788474 -23.772368 3.911443 12.041518 35.879183 0.505012 8.724900 -19.328780 1.587022 7.946531 22.552051 0.000000 0.000000 0.000000 17.448150 -10.811262 -21.598929 -1.972151 -8.807850 25.196125 -0.246772 -15.618215 -24.475033 -2.703855 -10.187686 29.597240 0.411550 1.730741 -17.287368 -1.213094 2.485355 -3.030836 -0.956489 1.315919 6.502260 18.730377 21.310186 -6.896473 -16.268396 31.231622 24.635702 -3.209137 13.730356 15.559319 0.000000 0.000000 0.000000 88.891956 -33.444138 34.796152 142.143499 -46.747412 103.139030 15.130809 -24.133910 22.603540 0.000000 0.000000 0.000000 -7.125000 0.000000 0.000000 -8.644557 6.869812 -7.638096 0.000000 0.000000 0.000000 -91.659164 -11.208212 -36.408406 -148.598749 -42.064595 -107.662179 -11.238695 -19.800585 30.979851 0.000000 0.000000 0.000000 7.125000 0.000000 0.000000 23.386234 59.900379 -8.792995
-8.441259 1.644977 1.084987 38.291375 85.046853 139.202389 0.000000 0.000000 0.000000 -15.993334 2.888215 -23.671571 3.921383 12.055061 35.927001 0.541763 8.572533 -19.577853 1.681528 8.168488 23.227153 0.000000 0.000000 0.000000 17.828220 -11.013641 -21.539334 -1.964890 -8.792602 25.148718 -0.311906 -16.011030 -25.515476 -1.863635 -8.551354 24.416640 0.795956 1.662678 -17.106027 -1.063617 2.309417 -3.019449 -1.060109 1.234142 6.420063 18.556243 21.383658 -6.589645 -16.476289 31.400836 24.368536 -3.250563 13.806873 15.426682 0.000000 0.000000 0.000000 88.827679 -33.067971 34.806749 142.153090 -46.741279 103.145949 15.165430 -24.134481 22.548341 0.000000 0.000000 0.000000 -7.125000 0.000000 0.000000 -8.620035 6.921026 -7.607292 0.000000 0.000000 0.000000 -91.805429 -11.609838 -36.347502 -148.521467 -42.127464 -107.610415 -11.306272 -19.705208 30.947013 0.000000 0.000000 0.000000 7.125000 0.000000 0.000000 23.289113 59.886242 -8.746066
-8.443194 1.645136 1.082786 37.401766 84.974084 138.333050 0.000000 0.000000 0.000000 -16.126580 2.906221 -23.741992 3.937919 12.077290 36.006049 0.555110 8.551826 -19.698225 1.620493 8.019009 22.775750 0.000000 0.000000 0.000000 17.763386 -11.152605 -21.575735 -1.954852 -8.771385 25.082697 -0.421712 -16.198427 -26.627907 -1.184293 -6.867498 19.338231 0.690777 1.656104 -17.137045 -1.078017 2.320851 -3.011559 -1.012288 1.237793 6.442320 18.488790 21.349566 -6.397938 -16.625215 31.341208 24.016783 -3.335109 13.802266 15.236451 0.000000 0.000000 0.000000 88.846066 -33.107069 34.768345 142.129015 -46.756724 103.128464 15.535260 -24.052356 22.336426 0.000000 0.000000 0.000000 -7.125000 0.000000 0.000000 -8.376111 7.088050 -7.362196 0.000000 0.000000 0.000000 -91.912686 -11.575831 -36.383138 -148.478253 -42.162493 -107.581442 -11.374686 -19.708611 31.019207 0.000000 0.000000 0.000000 7.125000 0.000000 0.000000 23.277516 59.967752 -8.787066
-8.447633 1.641530 1.083619 37.324624 84.971339 138.365230 0.000000 0.000000 0.000000 -16.148599 2.919651 -23.937994 3.961060 12.108460 36.116707 0.540688 8.629807 -19.618715 1.231407 7.000633 19.732139 0.000000 0.000000 0.000000 17.838684 -11.249318 -21.690714 -1.946632 -8.753993 25.028697 -0.562195 -16.552870 -28.099076 -0.561809 -4.484347 12.493293 0.680254 1.658031 -17.304297 -1.089493 2.327427 -3.014311 -1.012354 1.241705 6.530315 18.469890 21.343770 -6.216115 -16.750152 31.315202 23.701109 -3.403975 13.812900 15.076776 0.000000 0.000000 0.000000 88.683255 -33.148901 34.525346 142.183383 -46.721748 103.168080 17.204903 -23.638837 21.056170 0.000000 0.000000 0.000000 -7.125000 0.000000 0.000000 -7.247212 8.175359 -6.206119 0.000000 0.000000 0.000000 -92.066481 -11.482600 -36.490021 -148.448856 -42.186374 -107.561700 -11.444779 -19.921270 31.158906 0.000000 0.000000 0.000000 7.125000 0.000000 0.000000 23.319971 60.111025 -8.884488
